# xmcd
#
# Track frame offsets:
#      150
#      30192
#      46702
#      68342
#      87190
#      112890
#      131725
#      150442
#      169640
#      188157
#      216572
#      237470
#      256220
#      279537
#      303000
#      326340
# 
# Disc length: 4608 seconds
#
# Revision: 8
# Processed by: cddbd v1.4PL0 Copyright (c) Steve Scherf et al.
#
# Submitted via: FreeRIP 1.21
#
DISCID=c511fe10
DTITLE=Mint Condition - The Collection (1991-1998)
DYEAR=1998
DGENRE=R&B
TTITLE0=What You Bring To The Party
TTITLE1=Deep In My Pockets
TTITLE2=Breakin' My Heart (Pretty Brown Eyes)
TTITLE3=U Send Me Swinging - (7" radio edit)
TTITLE4=10 Million Strong
TTITLE5=Let Me Be The One - (Ummah Radio remix, featuring Phife)
TTITLE6=Someone To Love - (edit)
TTITLE7="Bliss" Alice Peacock with John Mayer
TTITLE8=What Kind Of Man Would I Be - (Radio edit)
TTITLE9=So Fine
TTITLE10=Never That You'll Never Know, The
TTITLE11=Forever In Your Eyes - (7" Album edit)
TTITLE12=My Dear
TTITLE13=Single To Mingle - (live)
TTITLE14=Breakin' My Heart (Pretty Brown Eyes) - (Tear Drop edit)
TTITLE15=Bonus Track
EXTD=YEAR: 1997 ID3G: 14
EXTT0=
EXTT1=
EXTT2=
EXTT3=
EXTT4=
EXTT5=
EXTT6=
EXTT7=
EXTT8=
EXTT9=
EXTT10=
EXTT11=
EXTT12=
EXTT13=
EXTT14=
EXTT15=
PLAYORDER=
